Normalized EMG Linear Envelopes
nRows=109
nColumns=4

endheader
time	 med_gas_r	  soleus_r	 tib_ant_r	
3.00605	  0.011683	  0.011754	  0.005251	
3.07762	  0.011489	  0.012478	  0.005468	
3.14919	  0.011448	  0.013356	  0.006096	
3.22077	  0.011355	  0.013868	  0.006809	
3.29234	  0.011059	  0.013868	  0.007012	
3.36391	  0.010399	  0.013517	  0.006246	
3.43548	  0.009768	  0.012928	  0.005203	
3.50706	  0.009940	  0.012366	  0.004581	
3.57863	  0.010895	  0.012197	  0.004658	
3.6502	  0.011762	  0.012419	  0.005293	
3.72177	  0.011602	  0.012792	  0.006150	
3.79335	  0.010792	  0.012961	  0.006947	
3.86492	  0.010061	  0.012703	  0.006953	
3.93649	  0.009656	  0.012351	  0.006234	
4.00806	  0.009343	  0.012100	  0.005858	
4.07964	  0.009294	  0.011872	  0.006146	
4.15121	  0.009803	  0.011801	  0.006484	
4.22278	  0.010506	  0.012031	  0.006140	
4.29435	  0.010719	  0.012325	  0.005631	
4.36593	  0.010484	  0.012470	  0.005263	
4.4375	  0.010261	  0.012477	  0.005034	
4.50907	  0.010282	  0.012344	  0.005045	
4.58065	  0.010674	  0.012028	  0.005445	
4.65222	  0.011437	  0.011779	  0.005965	
4.72379	  0.012298	  0.011704	  0.006189	
4.79536	  0.012564	  0.011911	  0.006387	
4.86694	  0.012173	  0.012441	  0.007018	
4.93851	  0.011509	  0.012806	  0.008266	
5.01008	  0.011047	  0.012682	  0.009338	
5.08165	  0.010329	  0.011680	  0.009532	
5.15323	  0.009068	  0.009585	  0.009172	
5.2248	  0.007714	  0.007479	  0.008444	
5.29637	  0.007817	  0.009083	  0.007850	
5.36794	  0.012105	  0.021528	  0.008684	
5.43952	  0.023568	  0.053492	  0.012042	
5.51109	  0.041879	  0.105626	  0.019125	
5.58266	  0.058073	  0.155530	  0.027803	
5.65423	  0.066321	  0.183178	  0.033683	
5.72581	  0.068173	  0.186030	  0.035065	
5.79738	  0.066486	  0.176172	  0.034123	
5.86895	  0.063996	  0.168320	  0.033944	
5.94052	  0.066145	  0.180277	  0.037586	
6.0121	  0.075468	  0.222090	  0.045138	
6.08367	  0.088125	  0.280174	  0.052775	
6.15524	  0.101198	  0.324763	  0.055572	
6.22681	  0.112443	  0.350131	  0.053657	
6.29839	  0.119887	  0.358502	  0.049090	
6.36996	  0.123926	  0.355033	  0.045712	
6.44153	  0.126726	  0.338264	  0.046418	
6.5131	  0.126213	  0.317993	  0.048896	
6.58468	  0.117171	  0.303046	  0.050725	
6.65625	  0.110111	  0.296864	  0.050320	
6.72782	  0.105465	  0.296426	  0.047922	
6.7994	  0.104963	  0.305248	  0.046788	
6.87097	  0.109880	  0.324922	  0.048073	
6.94254	  0.113440	  0.338058	  0.050081	
7.01411	  0.111644	  0.332172	  0.051457	
7.08569	  0.109339	  0.325648	  0.052781	
7.15726	  0.110313	  0.332855	  0.053220	
7.22883	  0.114320	  0.341536	  0.050681	
7.3004	  0.117647	  0.350050	  0.048449	
7.37198	  0.123528	  0.365476	  0.048977	
7.44355	  0.135953	  0.386447	  0.049915	
7.51512	  0.149195	  0.407355	  0.050717	
7.58669	  0.157412	  0.405521	  0.052572	
7.65827	  0.164203	  0.392486	  0.054901	
7.72984	  0.169955	  0.379143	  0.055845	
7.80141	  0.171260	  0.360048	  0.054962	
7.87298	  0.163456	  0.338795	  0.053968	
7.94456	  0.146057	  0.318671	  0.053604	
8.01613	  0.130385	  0.305893	  0.051978	
8.0877	  0.124123	  0.301376	  0.050070	
8.15927	  0.122421	  0.298440	  0.049245	
8.23085	  0.118921	  0.293509	  0.048827	
8.30242	  0.109840	  0.290647	  0.046867	
8.37399	  0.103252	  0.297927	  0.044196	
8.44556	  0.104238	  0.308336	  0.043902	
8.51714	  0.112056	  0.308899	  0.046621	
8.58871	  0.125833	  0.306481	  0.049953	
8.66028	  0.139125	  0.301910	  0.053865	
8.73185	  0.139041	  0.295310	  0.058016	
8.80343	  0.131535	  0.296758	  0.059639	
8.875	  0.125740	  0.307957	  0.058678	
8.94657	  0.126793	  0.316714	  0.054871	
9.01815	  0.126863	  0.312167	  0.051301	
9.08972	  0.123600	  0.306616	  0.051204	
9.16129	  0.122045	  0.312212	  0.053031	
9.23286	  0.119935	  0.332085	  0.054145	
9.30444	  0.114302	  0.351965	  0.053356	
9.37601	  0.107597	  0.356777	  0.051774	
9.44758	  0.104306	  0.338499	  0.050731	
9.51915	  0.107746	  0.310767	  0.049250	
9.59073	  0.115390	  0.289626	  0.046599	
9.6623	  0.121374	  0.279450	  0.045012	
9.73387	  0.126522	  0.275784	  0.045329	
9.80544	  0.130039	  0.285546	  0.045742	
9.87702	  0.123888	  0.295308	  0.044185	
9.94859	  0.115790	  0.293388	  0.042639	
10.0202	  0.114348	  0.279371	  0.041802	
10.0917	  0.113826	  0.256172	  0.041580	
10.1633	  0.109959	  0.234335	  0.040943	
10.2349	  0.103144	  0.214253	  0.038281	
10.3065	  0.091438	  0.190411	  0.035036	
10.378	  0.075526	  0.168242	  0.032487	
10.4496	  0.060959	  0.151563	  0.030628	
10.5212	  0.050091	  0.139113	  0.029148	
10.5927	  0.042248	  0.129378	  0.027184	
10.6643	  0.036373	  0.121136	  0.024782	
10.7359	  0.032210	  0.105800	  0.022057	
